<?xml version="1.0" encoding="UTF-8" standalone="no"?>
<!-- Generator: Adobe Illustrator 13.0.0, SVG Export Plug-In . SVG Version: 6.00 Build 14948)  -->

<svg
   xmlns:dc="http://purl.org/dc/elements/1.1/"
   xmlns:cc="http://creativecommons.org/ns#"
   xmlns:rdf="http://www.w3.org/1999/02/22-rdf-syntax-ns#"
   xmlns:svg="http://www.w3.org/2000/svg"
   xmlns="http://www.w3.org/2000/svg"
   xmlns:sodipodi="http://sodipodi.sourceforge.net/DTD/sodipodi-0.dtd"
   xmlns:inkscape="http://www.inkscape.org/namespaces/inkscape"
   version="1.1"
   x="0px"
   y="0px"
   width="800"
   height="117"
   viewBox="0 0 800 117"
   enable-background="new 0 0 800 406.662"
   xml:space="preserve"
   id="svg2"
   inkscape:version="0.47 r22583"
   sodipodi:docname="Recoset.svg"><metadata
   id="metadata134"><rdf:RDF><cc:Work
       rdf:about=""><dc:format>image/svg+xml</dc:format><dc:type
         rdf:resource="http://purl.org/dc/dcmitype/StillImage" /></cc:Work></rdf:RDF></metadata><defs
   id="defs132"><inkscape:perspective
     sodipodi:type="inkscape:persp3d"
     inkscape:vp_x="0 : 203.33099 : 1"
     inkscape:vp_y="0 : 1000 : 0"
     inkscape:vp_z="800 : 203.33099 : 1"
     inkscape:persp3d-origin="400 : 135.554 : 1"
     id="perspective136" /></defs><sodipodi:namedview
   pagecolor="#ffffff"
   bordercolor="#666666"
   borderopacity="1"
   objecttolerance="10"
   gridtolerance="10"
   guidetolerance="10"
   inkscape:pageopacity="0"
   inkscape:pageshadow="2"
   inkscape:window-width="640"
   inkscape:window-height="504"
   id="namedview130"
   showgrid="false"
   inkscape:zoom="0.58033455"
   inkscape:cx="399.99999"
   inkscape:cy="203.33098"
   inkscape:window-x="0"
   inkscape:window-y="24"
   inkscape:window-maximized="0"
   inkscape:current-layer="svg2" />
<g
   id="bg"
   transform="translate(-1.2487336e-5,-289.66199)">
	<rect
   y="289.66199"
   width="800"
   height="117"
   id="rect5"
   x="0" />
</g>


<g
   id="black_bg"
   transform="translate(-1.2487336e-5,-289.66199)">
	<g
   id="g70">
		<path
   d="m 371.145,355.866 c -0.681,-0.729 -1.544,-1.4 -2.59,-2.011 2.103,-0.305 3.684,-1.043 4.74,-2.215 1.057,-1.171 1.586,-2.655 1.586,-4.453 0,-1.417 -0.349,-2.676 -1.046,-3.776 -0.697,-1.1 -1.626,-1.866 -2.787,-2.297 -1.16,-0.43 -3.021,-0.646 -5.582,-0.646 h -10.184 v 23.963 h 4.838 v -10.004 h 0.98 c 1.112,0 1.923,0.089 2.436,0.271 0.512,0.179 0.997,0.512 1.455,0.997 0.458,0.484 1.308,1.658 2.55,3.522 l 3.499,5.214 h 5.786 l -2.926,-4.675 c -1.155,-1.862 -2.074,-3.159 -2.755,-3.89 z m -7.445,-5.262 h -3.58 v -6.08 h 3.776 c 1.961,0 3.138,0.026 3.531,0.081 0.785,0.131 1.392,0.443 1.823,0.939 0.43,0.496 0.646,1.147 0.646,1.954 0,0.719 -0.164,1.317 -0.491,1.797 -0.327,0.48 -0.779,0.818 -1.356,1.015 -0.579,0.195 -2.028,0.294 -4.349,0.294 z"
   id="path72"
   style="fill:#cccccc" />
		<polygon
   points="384.28,349.834 384.28,344.523 397.209,344.523 397.209,340.469 379.441,340.469 379.441,364.432 397.668,364.432 397.668,360.394 384.28,360.394 384.28,353.872 396.311,353.872 396.311,349.834 "
   id="polygon74"
   style="fill:#cccccc" />
		<path
   d="m 413.992,359.479 c -0.926,0.817 -2.032,1.226 -3.317,1.226 -1.744,0 -3.161,-0.644 -4.251,-1.929 -1.09,-1.286 -1.634,-3.444 -1.634,-6.474 0,-2.855 0.553,-4.92 1.658,-6.194 1.106,-1.275 2.548,-1.913 4.324,-1.913 1.285,0 2.379,0.359 3.277,1.079 0.898,0.719 1.49,1.7 1.773,2.942 l 4.789,-1.144 c -0.544,-1.919 -1.361,-3.39 -2.452,-4.414 -1.83,-1.733 -4.211,-2.599 -7.143,-2.599 -3.356,0 -6.063,1.103 -8.125,3.309 -2.06,2.207 -3.089,5.306 -3.089,9.294 0,3.771 1.024,6.742 3.074,8.916 2.048,2.175 4.664,3.262 7.845,3.262 2.572,0 4.694,-0.636 6.367,-1.904 1.673,-1.271 2.869,-3.213 3.589,-5.828 l -4.692,-1.487 c -0.401,1.754 -1.066,3.04 -1.993,3.858 z"
   id="path76"
   style="fill:#cccccc" />
		<path
   d="m 434.322,340.061 c -1.95,0 -3.673,0.315 -5.165,0.947 -1.122,0.469 -2.155,1.188 -3.097,2.157 -0.943,0.971 -1.688,2.065 -2.231,3.286 -0.731,1.655 -1.096,3.705 -1.096,6.146 0,3.813 1.052,6.808 3.154,8.981 2.104,2.175 4.938,3.262 8.5,3.262 3.521,0 6.331,-1.094 8.435,-3.277 2.104,-2.186 3.156,-5.212 3.156,-9.081 0,-3.9 -1.062,-6.947 -3.18,-9.137 -2.119,-2.19 -4.944,-3.284 -8.476,-3.284 z m 4.798,18.559 c -1.236,1.39 -2.819,2.085 -4.749,2.085 -1.928,0 -3.519,-0.7 -4.772,-2.101 -1.253,-1.399 -1.88,-3.457 -1.88,-6.171 0,-2.757 0.611,-4.818 1.831,-6.187 1.221,-1.367 2.828,-2.052 4.821,-2.052 1.995,0 3.594,0.676 4.798,2.026 1.204,1.352 1.807,3.4 1.807,6.146 0,2.781 -0.62,4.864 -1.856,6.254 z"
   id="path78"
   style="fill:#cccccc" />
		<path
   d="m 463.85,351.2 c -1.127,-0.595 -2.868,-1.17 -5.223,-1.726 -2.354,-0.555 -3.836,-1.089 -4.445,-1.601 -0.479,-0.404 -0.72,-0.89 -0.72,-1.456 0,-0.62 0.256,-1.115 0.769,-1.487 0.796,-0.577 1.896,-0.865 3.302,-0.865 1.361,0 2.384,0.269 3.065,0.809 0.68,0.54 1.124,1.424 1.331,2.656 l 4.839,-0.213 c -0.076,-2.201 -0.874,-3.961 -2.395,-5.279 -1.52,-1.318 -3.784,-1.978 -6.792,-1.978 -1.842,0 -3.414,0.277 -4.716,0.832 -1.303,0.557 -2.299,1.365 -2.991,2.429 -0.693,1.063 -1.038,2.204 -1.038,3.424 0,1.896 0.735,3.504 2.207,4.822 1.046,0.937 2.865,1.727 5.459,2.37 2.017,0.502 3.308,0.851 3.874,1.047 0.828,0.294 1.407,0.641 1.741,1.037 0.332,0.398 0.498,0.88 0.498,1.447 0,0.884 -0.395,1.653 -1.185,2.312 -0.791,0.66 -1.964,0.99 -3.522,0.99 -1.472,0 -2.64,-0.37 -3.506,-1.112 -0.866,-0.74 -1.441,-1.901 -1.725,-3.481 l -4.708,0.458 c 0.315,2.682 1.286,4.722 2.909,6.121 1.624,1.401 3.95,2.101 6.98,2.101 2.081,0 3.82,-0.291 5.214,-0.874 1.396,-0.583 2.474,-1.475 3.236,-2.673 0.762,-1.198 1.145,-2.485 1.145,-3.857 0,-1.515 -0.318,-2.787 -0.956,-3.816 -0.637,-1.032 -1.519,-1.843 -2.647,-2.437 z"
   id="path80"
   style="fill:#cccccc" />
		<polygon
   points="475.247,349.834 475.247,344.523 488.177,344.523 488.177,340.469 470.409,340.469 470.409,364.432 488.635,364.432 488.635,360.394 475.247,360.394 475.247,353.872 487.277,353.872 487.277,349.834 "
   id="polygon82"
   style="fill:#cccccc" />
		<polygon
   points="498.131,364.432 502.971,364.432 502.971,344.523 510.064,344.523 510.064,340.469 491.021,340.469 491.021,344.523 498.131,344.523 "
   id="polygon84"
   style="fill:#cccccc" />
	</g>
	<g
   id="g86">
		<radialGradient
   id="SVGID_7_"
   cx="317.06351"
   cy="349.17291"
   r="27.0392"
   gradientUnits="userSpaceOnUse">
			<stop
   offset="0"
   style="stop-color:#F2F2F2"
   id="stop89" />
			<stop
   offset="1"
   style="stop-color:#808080"
   id="stop91" />
		</radialGradient>
		<polygon
   clip-rule="evenodd"
   points="288.214,365.023 302.655,342.302 302.545,369.227 "
   id="polygon93"
   style="fill:url(#SVGID_7_);fill-rule:evenodd" />
		<radialGradient
   id="SVGID_8_"
   cx="317.06351"
   cy="349.17581"
   r="27.038099"
   gradientUnits="userSpaceOnUse">
			<stop
   offset="0"
   style="stop-color:#EBBA0D"
   id="stop96" />
			<stop
   offset="1"
   style="stop-color:#EB6E0D"
   id="stop98" />
		</radialGradient>
		<polygon
   clip-rule="evenodd"
   points="344.489,333.412 330.048,356.134 330.158,329.209 "
   id="polygon100"
   style="fill:url(#SVGID_8_);fill-rule:evenodd" />
		<radialGradient
   id="SVGID_9_"
   cx="317.064"
   cy="349.1738"
   r="27.037201"
   gradientUnits="userSpaceOnUse">
			<stop
   offset="0"
   style="stop-color:#EBBA0D"
   id="stop103" />
			<stop
   offset="1"
   style="stop-color:#EB6E0D"
   id="stop105" />
		</radialGradient>
		<polygon
   clip-rule="evenodd"
   points="344.109,365.682 317.211,364.539 340.583,351.171 "
   id="polygon107"
   style="fill:url(#SVGID_9_);fill-rule:evenodd" />
		<radialGradient
   id="SVGID_10_"
   cx="317.06351"
   cy="349.17291"
   r="27.0385"
   gradientUnits="userSpaceOnUse">
			<stop
   offset="0"
   style="stop-color:#F2F2F2"
   id="stop110" />
			<stop
   offset="1"
   style="stop-color:#808080"
   id="stop112" />
		</radialGradient>
		<polygon
   clip-rule="evenodd"
   points="315.972,381.489 303.515,357.621 326.774,371.176 "
   id="polygon114"
   style="fill:url(#SVGID_10_);fill-rule:evenodd" />
		<radialGradient
   id="SVGID_11_"
   cx="317.06351"
   cy="349.1738"
   r="27.0303"
   gradientUnits="userSpaceOnUse">
			<stop
   offset="0"
   style="stop-color:#F2F2F2"
   id="stop117" />
			<stop
   offset="1"
   style="stop-color:#808080"
   id="stop119" />
		</radialGradient>
		<polygon
   clip-rule="evenodd"
   points="288.594,332.752 315.493,333.897 292.122,347.265 "
   id="polygon121"
   style="fill:url(#SVGID_11_);fill-rule:evenodd" />
		<radialGradient
   id="SVGID_12_"
   cx="317.06299"
   cy="349.17581"
   r="27.039499"
   gradientUnits="userSpaceOnUse">
			<stop
   offset="0"
   style="stop-color:#EBBA0D"
   id="stop124" />
			<stop
   offset="1"
   style="stop-color:#EB6E0D"
   id="stop126" />
		</radialGradient>
		<polygon
   clip-rule="evenodd"
   points="316.732,316.946 329.189,340.814 305.928,327.257 "
   id="polygon128"
   style="fill:url(#SVGID_12_);fill-rule:evenodd" />
	</g>
</g>
</svg>